<svg width="48" height="48" viewBox="0 0 48 48" fill="none" xmlns="http://www.w3.org/2000/svg">
<g clip-path="url(#clip0_11_4)">
<path fill-rule="evenodd" clip-rule="evenodd" d="M34.6667 19.8C36.027 19.7999 37.336 20.2093 38.3258 20.9442C39.3156 21.6791 39.9113 22.6842 39.9911 23.7536L40 24V28.2C40 29.096 39.3262 29.7946 38.432 30.1138L38.2222 30.1796V35.2C38.2225 35.9064 37.8837 36.5868 37.2738 37.1048C36.6638 37.6227 35.8278 37.94 34.9333 37.993L34.6667 38H13.3333C12.4363 38.0002 11.5723 37.7334 10.9146 37.2531C10.2568 36.7728 9.85394 36.1144 9.78667 35.41L9.77778 35.2V30.181C9.29796 30.0492 8.8764 29.8115 8.56339 29.4963C8.25038 29.181 8.05913 28.8015 8.01244 28.403L8 28.2V24C7.99992 22.9287 8.51969 21.8979 9.45295 21.1184C10.3862 20.339 11.6624 19.8698 13.0204 19.807L13.3333 19.8H34.6667ZM34.5476 29.18C34.2718 29.017 33.9417 28.9207 33.5977 28.9028C33.2536 28.8849 32.9104 28.9462 32.6098 29.0792L32.4142 29.18L31.9413 29.46C31.069 29.9755 30.0168 30.268 28.9268 30.298C27.8368 30.3281 26.7613 30.0942 25.8453 29.628L25.5413 29.46L25.0667 29.18C24.7909 29.017 24.4609 28.9207 24.1168 28.9028C23.7727 28.8849 23.4295 28.9462 23.1289 29.0792L22.9333 29.18L22.4587 29.46C21.5865 29.9752 20.5347 30.2675 19.4451 30.2975C18.3554 30.3276 17.2803 30.0939 16.3644 29.628L16.0587 29.46L15.5858 29.18C15.31 29.017 14.98 28.9207 14.6359 28.9028C14.2919 28.8849 13.9486 28.9462 13.648 29.0792L13.4524 29.18L13.3333 29.25V35.2H34.6667V29.25L34.5476 29.18ZM34.6667 22.6H13.3333C12.8618 22.6 12.4097 22.7475 12.0763 23.0101C11.7429 23.2726 11.5556 23.6287 11.5556 24V26.807C12.4739 26.3239 13.5602 26.0772 14.6642 26.101C15.7683 26.1248 16.8357 26.418 17.7191 26.94L18.192 27.22C18.4997 27.4018 18.874 27.5 19.2587 27.5C19.6433 27.5 20.0176 27.4018 20.3253 27.22L20.8 26.94C21.7232 26.3947 22.846 26.1 24 26.1C25.154 26.1 26.2768 26.3947 27.2 26.94L27.6747 27.22C27.9824 27.4018 28.3567 27.5 28.7413 27.5C29.126 27.5 29.5003 27.4018 29.808 27.22L30.2809 26.94C31.1643 26.418 32.2317 26.1248 33.3358 26.101C34.4398 26.0772 35.5261 26.3239 36.4444 26.807V24C36.4444 23.6287 36.2571 23.2726 35.9237 23.0101C35.5903 22.7475 35.1382 22.6 34.6667 22.6ZM25.0667 10.28C25.8007 10.733 26.483 11.2356 27.1058 11.7822C28.0373 12.6068 29.3333 13.997 29.3333 15.6C29.3333 16.7139 28.7714 17.7822 27.7712 18.5698C26.771 19.3575 25.4145 19.8 24 19.8C22.5855 19.8 21.229 19.3575 20.2288 18.5698C19.2286 17.7822 18.6667 16.7139 18.6667 15.6C18.6667 13.997 19.9644 12.6068 20.8942 11.7822C21.517 11.2356 22.1993 10.733 22.9333 10.28C23.2411 10.0982 23.6153 10 24 10C24.3847 10 24.7589 10.0982 25.0667 10.28ZM24 13.2676C23.8452 13.389 23.6952 13.5141 23.5502 13.6428C22.704 14.3932 22.2222 15.103 22.2222 15.6C22.2222 15.9713 22.4095 16.3274 22.7429 16.5899C23.0763 16.8525 23.5285 17 24 17C24.4715 17 24.9237 16.8525 25.2571 16.5899C25.5905 16.3274 25.7778 15.9713 25.7778 15.6C25.7778 15.103 25.2978 14.3932 24.4498 13.6428C24.3048 13.5141 24.1548 13.389 24 13.2676Z" fill="#008673"/>
</g>
<defs>
<clipPath id="clip0_11_4">
<rect width="48" height="48" fill="white"/>
</clipPath>
</defs>
</svg>
