<svg width="48" height="48" viewBox="0 0 48 48" fill="none" xmlns="http://www.w3.org/2000/svg">
<path d="M17.0768 8C17.3738 8 17.6587 8.118 17.8688 8.32804C18.0788 8.53808 18.1968 8.82296 18.1968 9.12V11.2144H30.224V9.1344C30.224 8.83736 30.342 8.55248 30.552 8.34244C30.7621 8.1324 31.047 8.0144 31.344 8.0144C31.641 8.0144 31.9259 8.1324 32.136 8.34244C32.346 8.55248 32.464 8.83736 32.464 9.1344V11.2144H36.8C37.6484 11.2144 38.4621 11.5513 39.0622 12.1511C39.6622 12.7509 39.9996 13.5644 40 14.4128V36.8016C39.9996 37.65 39.6622 38.4635 39.0622 39.0633C38.4621 39.6631 37.6484 40 36.8 40H11.2C10.3516 40 9.53789 39.6631 8.93782 39.0633C8.33775 38.4635 8.00042 37.65 8 36.8016V14.4128C8.00042 13.5644 8.33775 12.7509 8.93782 12.1511C9.53789 11.5513 10.3516 11.2144 11.2 11.2144H15.9568V9.1184C15.9572 8.82163 16.0754 8.53717 16.2854 8.32747C16.4954 8.11778 16.78 8 17.0768 8ZM10.24 20.3872V36.8016C10.24 36.9277 10.2648 37.0525 10.3131 37.169C10.3613 37.2854 10.432 37.3913 10.5212 37.4804C10.6103 37.5696 10.7162 37.6403 10.8326 37.6885C10.9491 37.7368 11.0739 37.7616 11.2 37.7616H36.8C36.9261 37.7616 37.0509 37.7368 37.1674 37.6885C37.2839 37.6403 37.3897 37.5696 37.4788 37.4804C37.568 37.3913 37.6387 37.2854 37.6869 37.169C37.7352 37.0525 37.76 36.9277 37.76 36.8016V20.4096L10.24 20.3872ZM18.6672 31.3904V34.056H16V31.3904H18.6672ZM25.3328 31.3904V34.056H22.6672V31.3904H25.3328ZM32 31.3904V34.056H29.3328V31.3904H32ZM18.6672 25.0272V27.6928H16V25.0272H18.6672ZM25.3328 25.0272V27.6928H22.6672V25.0272H25.3328ZM32 25.0272V27.6928H29.3328V25.0272H32ZM15.9568 13.4528H11.2C11.0739 13.4528 10.9491 13.4776 10.8326 13.5259C10.7162 13.5741 10.6103 13.6448 10.5212 13.734C10.432 13.8231 10.3613 13.929 10.3131 14.0454C10.2648 14.1619 10.24 14.2867 10.24 14.4128V18.1488L37.76 18.1712V14.4128C37.76 14.2867 37.7352 14.1619 37.6869 14.0454C37.6387 13.929 37.568 13.8231 37.4788 13.734C37.3897 13.6448 37.2839 13.5741 37.1674 13.5259C37.0509 13.4776 36.9261 13.4528 36.8 13.4528H32.464V14.9392C32.464 15.2362 32.346 15.5211 32.136 15.7312C31.9259 15.9412 31.641 16.0592 31.344 16.0592C31.047 16.0592 30.7621 15.9412 30.552 15.7312C30.342 15.5211 30.224 15.2362 30.224 14.9392V13.4528H18.1968V14.9248C18.1968 15.2218 18.0788 15.5067 17.8688 15.7168C17.6587 15.9268 17.3738 16.0448 17.0768 16.0448C16.7798 16.0448 16.4949 15.9268 16.2848 15.7168C16.0748 15.5067 15.9568 15.2218 15.9568 14.9248V13.4528Z" fill="#008673"/>
</svg>
