<svg width="48" height="48" viewBox="0 0 48 48" fill="none" xmlns="http://www.w3.org/2000/svg">
<path fill-rule="evenodd" clip-rule="evenodd" d="M18 12.5C17.2777 12.5 16.5625 12.6423 15.8952 12.9187C15.2279 13.1951 14.6216 13.6002 14.1109 14.1109C13.6002 14.6216 13.1951 15.228 12.9187 15.8952C12.6423 16.5625 12.5 17.2777 12.5 18C12.5 18.7223 12.6423 19.4375 12.9187 20.1048C13.1951 20.772 13.6002 21.3784 14.1109 21.8891C14.6216 22.3998 15.2279 22.8049 15.8952 23.0813C16.5625 23.3577 17.2777 23.5 18 23.5C19.4587 23.5 20.8576 22.9205 21.8891 21.8891C22.9205 20.8576 23.5 19.4587 23.5 18C23.5 16.5413 22.9205 15.1424 21.8891 14.1109C20.8576 13.0795 19.4587 12.5 18 12.5ZM15.5 18C15.5 17.337 15.7634 16.7011 16.2322 16.2322C16.7011 15.7634 17.337 15.5 18 15.5C18.663 15.5 19.2989 15.7634 19.7678 16.2322C20.2366 16.7011 20.5 17.337 20.5 18C20.5 18.663 20.2366 19.2989 19.7678 19.7678C19.2989 20.2366 18.663 20.5 18 20.5C17.337 20.5 16.7011 20.2366 16.2322 19.7678C15.7634 19.2989 15.5 18.663 15.5 18ZM18 24.5C15.608 24.5 13.37 24.98 11.672 25.83C10.066 26.634 8.5 28.022 8.5 30V30.126C8.496 31.146 8.492 32.866 10.12 34.044C10.876 34.59 11.874 34.94 13.11 35.162C14.356 35.386 15.954 35.5 18 35.5C20.046 35.5 21.644 35.386 22.89 35.162C24.126 34.94 25.124 34.59 25.88 34.042C27.508 32.864 27.504 31.146 27.5 30.124V30C27.5 28.02 25.934 26.634 24.328 25.83C22.63 24.982 20.392 24.5 18 24.5ZM11.5 30C11.5 29.77 11.726 29.158 13.014 28.514C14.214 27.914 15.974 27.5 18 27.5C20.026 27.5 21.788 27.914 22.986 28.514C24.274 29.158 24.5 29.77 24.5 30C24.5 31.208 24.422 31.394 24.12 31.614C23.876 31.79 23.374 32.026 22.36 32.21C21.356 32.39 19.954 32.5 18 32.5C16.046 32.5 14.644 32.39 13.64 32.21C12.626 32.026 12.124 31.79 11.88 31.614C11.576 31.394 11.5 31.208 11.5 30Z" fill="#008673"/>
<path d="M38 25.5C38.3978 25.5 38.7794 25.342 39.0607 25.0607C39.342 24.7794 39.5 24.3978 39.5 24C39.5 23.6022 39.342 23.2206 39.0607 22.9393C38.7794 22.658 38.3978 22.5 38 22.5H30C29.6022 22.5 29.2206 22.658 28.9393 22.9393C28.658 23.2206 28.5 23.6022 28.5 24C28.5 24.3978 28.658 24.7794 28.9393 25.0607C29.2206 25.342 29.6022 25.5 30 25.5H38ZM39.5 18C39.5 18.3978 39.342 18.7794 39.0607 19.0607C38.7794 19.342 38.3978 19.5 38 19.5H28C27.6022 19.5 27.2206 19.342 26.9393 19.0607C26.658 18.7794 26.5 18.3978 26.5 18C26.5 17.6022 26.658 17.2206 26.9393 16.9393C27.2206 16.658 27.6022 16.5 28 16.5H38C38.3978 16.5 38.7794 16.658 39.0607 16.9393C39.342 17.2206 39.5 17.6022 39.5 18ZM38 31.5C38.3978 31.5 38.7794 31.342 39.0607 31.0607C39.342 30.7794 39.5 30.3978 39.5 30C39.5 29.6022 39.342 29.2206 39.0607 28.9393C38.7794 28.658 38.3978 28.5 38 28.5H32C31.6022 28.5 31.2206 28.658 30.9393 28.9393C30.658 29.2206 30.5 29.6022 30.5 30C30.5 30.3978 30.658 30.7794 30.9393 31.0607C31.2206 31.342 31.6022 31.5 32 31.5H38Z" fill="#008673"/>
<path fill-rule="evenodd" clip-rule="evenodd" d="M19.888 6.5H28.112C31.788 6.5 34.7 6.5 36.978 6.806C39.322 7.122 41.22 7.786 42.718 9.282C44.214 10.78 44.878 12.678 45.194 15.022C45.5 17.302 45.5 20.212 45.5 23.888V24.112C45.5 27.788 45.5 30.7 45.194 32.978C44.878 35.322 44.214 37.22 42.718 38.718C41.22 40.214 39.322 40.878 36.978 41.194C34.698 41.5 31.788 41.5 28.112 41.5H19.89C16.214 41.5 13.302 41.5 11.024 41.194C8.68 40.878 6.782 40.214 5.284 38.718C3.788 37.22 3.124 35.322 2.808 32.978C2.502 30.698 2.502 27.788 2.502 24.112V23.888C2.502 20.212 2.502 17.3 2.808 15.022C3.124 12.678 3.788 10.78 5.284 9.282C6.782 7.786 8.68 7.122 11.024 6.806C13.304 6.5 16.212 6.5 19.888 6.5ZM11.42 9.78C9.408 10.05 8.248 10.558 7.4 11.404C6.556 12.25 6.048 13.41 5.778 15.422C5.502 17.478 5.498 20.186 5.498 24C5.498 27.814 5.502 30.524 5.778 32.58C6.048 34.59 6.556 35.75 7.402 36.596C8.248 37.442 9.408 37.95 11.42 38.22C13.476 38.496 16.184 38.5 19.998 38.5H27.998C31.812 38.5 34.522 38.496 36.578 38.22C38.588 37.95 39.748 37.442 40.594 36.596C41.44 35.75 41.948 34.59 42.218 32.578C42.494 30.522 42.498 27.814 42.498 24C42.498 20.186 42.494 17.478 42.218 15.42C41.948 13.41 41.44 12.25 40.594 11.404C39.748 10.558 38.588 10.05 36.576 9.78C34.522 9.504 31.812 9.5 27.998 9.5H19.998C16.184 9.5 13.478 9.504 11.42 9.78Z" fill="#008673"/>
</svg>
